<?xml version="1.0" encoding="UTF-8"?>
<svg xmlns="http://www.w3.org/2000/svg" viewBox="0 0 1400 1100" width="1400" height="1100" role="img" aria-labelledby="title desc">
  <title id="title">Hilton Hawaiian Village Site Plan</title>
  <desc id="desc">GPS-calibrated HimmerFlow tower map. North up. Beach south, lagoon west, Kalia Road east.</desc>
  <style>
    .hidden-layer { display: none !important; }
    .tower-pin { cursor: pointer; }
    .tower-pin.dimmed { opacity: 0.35; }
    .tower-pin.selected .pin { r: 26; stroke-width: 3; }
    .tower-pin.selected text { font-size: 11px; }
  </style>
  <defs>
    <pattern id="grid" width="50" height="50" patternUnits="userSpaceOnUse">
      <path d="M 50 0 L 0 0 0 50" fill="none" stroke="#ddd" stroke-width="0.5" opacity="0.4"/>
    </pattern>
  </defs>

  <rect width="1400" height="1100" fill="#f5f5f0"/>

  <polygon points="164,920 1185,920 1280,180 164,180" fill="#e8e8e0" stroke="#1a1a1a" stroke-width="3" opacity="0.35"/>

  <g id="layer-roads" class="layer" data-layer="roads">
    <rect x="100" y="1010" width="1200" height="60" fill="#e0e0d8" stroke="#bbb"/>
    <text x="700" y="1048" text-anchor="middle" fill="#1a1a1a" font-size="14" font-weight="600" font-family="system-ui,sans-serif">Kahanamoku Beach / Pacific Ocean (South)</text>
    <line x1="1280" y1="100" x2="1280" y2="1000" stroke="#1a1a1a" stroke-width="2.5"/>
    <text fill="#1a1a1a" font-size="14" font-weight="600" font-family="system-ui,sans-serif" transform="rotate(90 1310 550)">KALIA ROAD</text>
  </g>

  <g id="layer-lots" class="layer" data-layer="lots">
    <ellipse cx="175" cy="720" rx="95" ry="130" fill="#0088aa" opacity="0.15" stroke="#0088aa"/>
    <text x="175" y="725" text-anchor="middle" fill="#1a1a1a" font-size="11" font-weight="600" font-family="system-ui,sans-serif">Duke Kahanamoku Lagoon</text>
  </g>

  <g id="layer-buildings" class="layer" data-layer="buildings">
    <rect x="130" y="861" width="70" height="50" rx="2" fill="#e8e8e0" stroke="#bbb"/><rect x="131" y="487" width="70" height="50" rx="2" fill="#e8e8e0" stroke="#bbb"/><rect x="600" y="171" width="70" height="50" rx="2" fill="#e8e8e0" stroke="#bbb"/><rect x="1151" y="755" width="70" height="50" rx="2" fill="#e8e8e0" stroke="#bbb"/><rect x="767" y="573" width="70" height="50" rx="2" fill="#e8e8e0" stroke="#bbb"/><rect x="637" y="670" width="70" height="50" rx="2" fill="#e8e8e0" stroke="#bbb"/><rect x="397" y="461" width="70" height="50" rx="2" fill="#e8e8e0" stroke="#bbb"/>
    <ellipse cx="520" cy="580" rx="70" ry="45" fill="#f5f5f0" stroke="#0088aa"/>
    <text x="520" y="585" text-anchor="middle" fill="#666" font-size="10" font-family="system-ui,sans-serif">Super Pool</text>
    <ellipse cx="750" cy="520" rx="40" ry="28" fill="#f5f5f0" stroke="#0088aa"/>
    <text x="750" y="525" text-anchor="middle" fill="#666" font-size="10" font-family="system-ui,sans-serif">Tapa Pool</text>
  </g>

  <g id="layer-garage" class="layer" data-layer="garage">
    <rect x="980" y="180" width="200" height="120" fill="#e8e8e0" stroke="#1a1a1a" stroke-width="2"/>
    <text x="1080" y="235" text-anchor="middle" fill="#1a1a1a" font-size="12" font-weight="700" font-family="system-ui,sans-serif">Kalia Rd Garage</text>
  </g>

  <g id="layer-easements" class="layer" data-layer="easements">
    <path d="M 164,500 Q 700,480 1185,500" stroke="#666" stroke-dasharray="6 4" fill="none"/>
    <text x="700" y="475" text-anchor="middle" fill="#666" font-size="9" font-family="system-ui,sans-serif">Fort DeRussy Boardwalk (approx)</text>
  </g>

  <g id="layer-trees" class="layer" data-layer="trees">
    <g transform="translate(120,850)"><circle cx="0" cy="0" r="6" fill="none" stroke="#666" stroke-width="1"/><line x1="0" y1="0" x2="6.00" y2="0.00" stroke="#666" stroke-width="1"/><line x1="0" y1="0" x2="4.24" y2="4.24" stroke="#666" stroke-width="1"/><line x1="0" y1="0" x2="0.00" y2="6.00" stroke="#666" stroke-width="1"/><line x1="0" y1="0" x2="-4.24" y2="4.24" stroke="#666" stroke-width="1"/><line x1="0" y1="0" x2="-6.00" y2="0.00" stroke="#666" stroke-width="1"/><line x1="0" y1="0" x2="-4.24" y2="-4.24" stroke="#666" stroke-width="1"/><line x1="0" y1="0" x2="-0.00" y2="-6.00" stroke="#666" stroke-width="1"/><line x1="0" y1="0" x2="4.24" y2="-4.24" stroke="#666" stroke-width="1"/></g><g transform="translate(140,600)"><circle cx="0" cy="0" r="6" fill="none" stroke="#666" stroke-width="1"/><line x1="0" y1="0" x2="6.00" y2="0.00" stroke="#666" stroke-width="1"/><line x1="0" y1="0" x2="4.24" y2="4.24" stroke="#666" stroke-width="1"/><line x1="0" y1="0" x2="0.00" y2="6.00" stroke="#666" stroke-width="1"/><line x1="0" y1="0" x2="-4.24" y2="4.24" stroke="#666" stroke-width="1"/><line x1="0" y1="0" x2="-6.00" y2="0.00" stroke="#666" stroke-width="1"/><line x1="0" y1="0" x2="-4.24" y2="-4.24" stroke="#666" stroke-width="1"/><line x1="0" y1="0" x2="-0.00" y2="-6.00" stroke="#666" stroke-width="1"/><line x1="0" y1="0" x2="4.24" y2="-4.24" stroke="#666" stroke-width="1"/></g><g transform="translate(160,400)"><circle cx="0" cy="0" r="6" fill="none" stroke="#666" stroke-width="1"/><line x1="0" y1="0" x2="6.00" y2="0.00" stroke="#666" stroke-width="1"/><line x1="0" y1="0" x2="4.24" y2="4.24" stroke="#666" stroke-width="1"/><line x1="0" y1="0" x2="0.00" y2="6.00" stroke="#666" stroke-width="1"/><line x1="0" y1="0" x2="-4.24" y2="4.24" stroke="#666" stroke-width="1"/><line x1="0" y1="0" x2="-6.00" y2="0.00" stroke="#666" stroke-width="1"/><line x1="0" y1="0" x2="-4.24" y2="-4.24" stroke="#666" stroke-width="1"/><line x1="0" y1="0" x2="-0.00" y2="-6.00" stroke="#666" stroke-width="1"/><line x1="0" y1="0" x2="4.24" y2="-4.24" stroke="#666" stroke-width="1"/></g><g transform="translate(200,200)"><circle cx="0" cy="0" r="6" fill="none" stroke="#666" stroke-width="1"/><line x1="0" y1="0" x2="6.00" y2="0.00" stroke="#666" stroke-width="1"/><line x1="0" y1="0" x2="4.24" y2="4.24" stroke="#666" stroke-width="1"/><line x1="0" y1="0" x2="0.00" y2="6.00" stroke="#666" stroke-width="1"/><line x1="0" y1="0" x2="-4.24" y2="4.24" stroke="#666" stroke-width="1"/><line x1="0" y1="0" x2="-6.00" y2="0.00" stroke="#666" stroke-width="1"/><line x1="0" y1="0" x2="-4.24" y2="-4.24" stroke="#666" stroke-width="1"/><line x1="0" y1="0" x2="-0.00" y2="-6.00" stroke="#666" stroke-width="1"/><line x1="0" y1="0" x2="4.24" y2="-4.24" stroke="#666" stroke-width="1"/></g><g transform="translate(350,150)"><circle cx="0" cy="0" r="6" fill="none" stroke="#666" stroke-width="1"/><line x1="0" y1="0" x2="6.00" y2="0.00" stroke="#666" stroke-width="1"/><line x1="0" y1="0" x2="4.24" y2="4.24" stroke="#666" stroke-width="1"/><line x1="0" y1="0" x2="0.00" y2="6.00" stroke="#666" stroke-width="1"/><line x1="0" y1="0" x2="-4.24" y2="4.24" stroke="#666" stroke-width="1"/><line x1="0" y1="0" x2="-6.00" y2="0.00" stroke="#666" stroke-width="1"/><line x1="0" y1="0" x2="-4.24" y2="-4.24" stroke="#666" stroke-width="1"/><line x1="0" y1="0" x2="-0.00" y2="-6.00" stroke="#666" stroke-width="1"/><line x1="0" y1="0" x2="4.24" y2="-4.24" stroke="#666" stroke-width="1"/></g><g transform="translate(550,130)"><circle cx="0" cy="0" r="6" fill="none" stroke="#666" stroke-width="1"/><line x1="0" y1="0" x2="6.00" y2="0.00" stroke="#666" stroke-width="1"/><line x1="0" y1="0" x2="4.24" y2="4.24" stroke="#666" stroke-width="1"/><line x1="0" y1="0" x2="0.00" y2="6.00" stroke="#666" stroke-width="1"/><line x1="0" y1="0" x2="-4.24" y2="4.24" stroke="#666" stroke-width="1"/><line x1="0" y1="0" x2="-6.00" y2="0.00" stroke="#666" stroke-width="1"/><line x1="0" y1="0" x2="-4.24" y2="-4.24" stroke="#666" stroke-width="1"/><line x1="0" y1="0" x2="-0.00" y2="-6.00" stroke="#666" stroke-width="1"/><line x1="0" y1="0" x2="4.24" y2="-4.24" stroke="#666" stroke-width="1"/></g><g transform="translate(750,125)"><circle cx="0" cy="0" r="6" fill="none" stroke="#666" stroke-width="1"/><line x1="0" y1="0" x2="6.00" y2="0.00" stroke="#666" stroke-width="1"/><line x1="0" y1="0" x2="4.24" y2="4.24" stroke="#666" stroke-width="1"/><line x1="0" y1="0" x2="0.00" y2="6.00" stroke="#666" stroke-width="1"/><line x1="0" y1="0" x2="-4.24" y2="4.24" stroke="#666" stroke-width="1"/><line x1="0" y1="0" x2="-6.00" y2="0.00" stroke="#666" stroke-width="1"/><line x1="0" y1="0" x2="-4.24" y2="-4.24" stroke="#666" stroke-width="1"/><line x1="0" y1="0" x2="-0.00" y2="-6.00" stroke="#666" stroke-width="1"/><line x1="0" y1="0" x2="4.24" y2="-4.24" stroke="#666" stroke-width="1"/></g><g transform="translate(950,140)"><circle cx="0" cy="0" r="6" fill="none" stroke="#666" stroke-width="1"/><line x1="0" y1="0" x2="6.00" y2="0.00" stroke="#666" stroke-width="1"/><line x1="0" y1="0" x2="4.24" y2="4.24" stroke="#666" stroke-width="1"/><line x1="0" y1="0" x2="0.00" y2="6.00" stroke="#666" stroke-width="1"/><line x1="0" y1="0" x2="-4.24" y2="4.24" stroke="#666" stroke-width="1"/><line x1="0" y1="0" x2="-6.00" y2="0.00" stroke="#666" stroke-width="1"/><line x1="0" y1="0" x2="-4.24" y2="-4.24" stroke="#666" stroke-width="1"/><line x1="0" y1="0" x2="-0.00" y2="-6.00" stroke="#666" stroke-width="1"/><line x1="0" y1="0" x2="4.24" y2="-4.24" stroke="#666" stroke-width="1"/></g><g transform="translate(300,500)"><circle cx="0" cy="0" r="6" fill="none" stroke="#666" stroke-width="1"/><line x1="0" y1="0" x2="6.00" y2="0.00" stroke="#666" stroke-width="1"/><line x1="0" y1="0" x2="4.24" y2="4.24" stroke="#666" stroke-width="1"/><line x1="0" y1="0" x2="0.00" y2="6.00" stroke="#666" stroke-width="1"/><line x1="0" y1="0" x2="-4.24" y2="4.24" stroke="#666" stroke-width="1"/><line x1="0" y1="0" x2="-6.00" y2="0.00" stroke="#666" stroke-width="1"/><line x1="0" y1="0" x2="-4.24" y2="-4.24" stroke="#666" stroke-width="1"/><line x1="0" y1="0" x2="-0.00" y2="-6.00" stroke="#666" stroke-width="1"/><line x1="0" y1="0" x2="4.24" y2="-4.24" stroke="#666" stroke-width="1"/></g><g transform="translate(450,480)"><circle cx="0" cy="0" r="6" fill="none" stroke="#666" stroke-width="1"/><line x1="0" y1="0" x2="6.00" y2="0.00" stroke="#666" stroke-width="1"/><line x1="0" y1="0" x2="4.24" y2="4.24" stroke="#666" stroke-width="1"/><line x1="0" y1="0" x2="0.00" y2="6.00" stroke="#666" stroke-width="1"/><line x1="0" y1="0" x2="-4.24" y2="4.24" stroke="#666" stroke-width="1"/><line x1="0" y1="0" x2="-6.00" y2="0.00" stroke="#666" stroke-width="1"/><line x1="0" y1="0" x2="-4.24" y2="-4.24" stroke="#666" stroke-width="1"/><line x1="0" y1="0" x2="-0.00" y2="-6.00" stroke="#666" stroke-width="1"/><line x1="0" y1="0" x2="4.24" y2="-4.24" stroke="#666" stroke-width="1"/></g><g transform="translate(600,460)"><circle cx="0" cy="0" r="6" fill="none" stroke="#666" stroke-width="1"/><line x1="0" y1="0" x2="6.00" y2="0.00" stroke="#666" stroke-width="1"/><line x1="0" y1="0" x2="4.24" y2="4.24" stroke="#666" stroke-width="1"/><line x1="0" y1="0" x2="0.00" y2="6.00" stroke="#666" stroke-width="1"/><line x1="0" y1="0" x2="-4.24" y2="4.24" stroke="#666" stroke-width="1"/><line x1="0" y1="0" x2="-6.00" y2="0.00" stroke="#666" stroke-width="1"/><line x1="0" y1="0" x2="-4.24" y2="-4.24" stroke="#666" stroke-width="1"/><line x1="0" y1="0" x2="-0.00" y2="-6.00" stroke="#666" stroke-width="1"/><line x1="0" y1="0" x2="4.24" y2="-4.24" stroke="#666" stroke-width="1"/></g><g transform="translate(750,500)"><circle cx="0" cy="0" r="6" fill="none" stroke="#666" stroke-width="1"/><line x1="0" y1="0" x2="6.00" y2="0.00" stroke="#666" stroke-width="1"/><line x1="0" y1="0" x2="4.24" y2="4.24" stroke="#666" stroke-width="1"/><line x1="0" y1="0" x2="0.00" y2="6.00" stroke="#666" stroke-width="1"/><line x1="0" y1="0" x2="-4.24" y2="4.24" stroke="#666" stroke-width="1"/><line x1="0" y1="0" x2="-6.00" y2="0.00" stroke="#666" stroke-width="1"/><line x1="0" y1="0" x2="-4.24" y2="-4.24" stroke="#666" stroke-width="1"/><line x1="0" y1="0" x2="-0.00" y2="-6.00" stroke="#666" stroke-width="1"/><line x1="0" y1="0" x2="4.24" y2="-4.24" stroke="#666" stroke-width="1"/></g><g transform="translate(500,380)"><circle cx="0" cy="0" r="6" fill="none" stroke="#666" stroke-width="1"/><line x1="0" y1="0" x2="6.00" y2="0.00" stroke="#666" stroke-width="1"/><line x1="0" y1="0" x2="4.24" y2="4.24" stroke="#666" stroke-width="1"/><line x1="0" y1="0" x2="0.00" y2="6.00" stroke="#666" stroke-width="1"/><line x1="0" y1="0" x2="-4.24" y2="4.24" stroke="#666" stroke-width="1"/><line x1="0" y1="0" x2="-6.00" y2="0.00" stroke="#666" stroke-width="1"/><line x1="0" y1="0" x2="-4.24" y2="-4.24" stroke="#666" stroke-width="1"/><line x1="0" y1="0" x2="-0.00" y2="-6.00" stroke="#666" stroke-width="1"/><line x1="0" y1="0" x2="4.24" y2="-4.24" stroke="#666" stroke-width="1"/></g><g transform="translate(650,360)"><circle cx="0" cy="0" r="6" fill="none" stroke="#666" stroke-width="1"/><line x1="0" y1="0" x2="6.00" y2="0.00" stroke="#666" stroke-width="1"/><line x1="0" y1="0" x2="4.24" y2="4.24" stroke="#666" stroke-width="1"/><line x1="0" y1="0" x2="0.00" y2="6.00" stroke="#666" stroke-width="1"/><line x1="0" y1="0" x2="-4.24" y2="4.24" stroke="#666" stroke-width="1"/><line x1="0" y1="0" x2="-6.00" y2="0.00" stroke="#666" stroke-width="1"/><line x1="0" y1="0" x2="-4.24" y2="-4.24" stroke="#666" stroke-width="1"/><line x1="0" y1="0" x2="-0.00" y2="-6.00" stroke="#666" stroke-width="1"/><line x1="0" y1="0" x2="4.24" y2="-4.24" stroke="#666" stroke-width="1"/></g><g transform="translate(850,400)"><circle cx="0" cy="0" r="6" fill="none" stroke="#666" stroke-width="1"/><line x1="0" y1="0" x2="6.00" y2="0.00" stroke="#666" stroke-width="1"/><line x1="0" y1="0" x2="4.24" y2="4.24" stroke="#666" stroke-width="1"/><line x1="0" y1="0" x2="0.00" y2="6.00" stroke="#666" stroke-width="1"/><line x1="0" y1="0" x2="-4.24" y2="4.24" stroke="#666" stroke-width="1"/><line x1="0" y1="0" x2="-6.00" y2="0.00" stroke="#666" stroke-width="1"/><line x1="0" y1="0" x2="-4.24" y2="-4.24" stroke="#666" stroke-width="1"/><line x1="0" y1="0" x2="-0.00" y2="-6.00" stroke="#666" stroke-width="1"/><line x1="0" y1="0" x2="4.24" y2="-4.24" stroke="#666" stroke-width="1"/></g><g transform="translate(1050,600)"><circle cx="0" cy="0" r="6" fill="none" stroke="#666" stroke-width="1"/><line x1="0" y1="0" x2="6.00" y2="0.00" stroke="#666" stroke-width="1"/><line x1="0" y1="0" x2="4.24" y2="4.24" stroke="#666" stroke-width="1"/><line x1="0" y1="0" x2="0.00" y2="6.00" stroke="#666" stroke-width="1"/><line x1="0" y1="0" x2="-4.24" y2="4.24" stroke="#666" stroke-width="1"/><line x1="0" y1="0" x2="-6.00" y2="0.00" stroke="#666" stroke-width="1"/><line x1="0" y1="0" x2="-4.24" y2="-4.24" stroke="#666" stroke-width="1"/><line x1="0" y1="0" x2="-0.00" y2="-6.00" stroke="#666" stroke-width="1"/><line x1="0" y1="0" x2="4.24" y2="-4.24" stroke="#666" stroke-width="1"/></g><g transform="translate(1150,750)"><circle cx="0" cy="0" r="6" fill="none" stroke="#666" stroke-width="1"/><line x1="0" y1="0" x2="6.00" y2="0.00" stroke="#666" stroke-width="1"/><line x1="0" y1="0" x2="4.24" y2="4.24" stroke="#666" stroke-width="1"/><line x1="0" y1="0" x2="0.00" y2="6.00" stroke="#666" stroke-width="1"/><line x1="0" y1="0" x2="-4.24" y2="4.24" stroke="#666" stroke-width="1"/><line x1="0" y1="0" x2="-6.00" y2="0.00" stroke="#666" stroke-width="1"/><line x1="0" y1="0" x2="-4.24" y2="-4.24" stroke="#666" stroke-width="1"/><line x1="0" y1="0" x2="-0.00" y2="-6.00" stroke="#666" stroke-width="1"/><line x1="0" y1="0" x2="4.24" y2="-4.24" stroke="#666" stroke-width="1"/></g><g transform="translate(1250,550)"><circle cx="0" cy="0" r="6" fill="none" stroke="#666" stroke-width="1"/><line x1="0" y1="0" x2="6.00" y2="0.00" stroke="#666" stroke-width="1"/><line x1="0" y1="0" x2="4.24" y2="4.24" stroke="#666" stroke-width="1"/><line x1="0" y1="0" x2="0.00" y2="6.00" stroke="#666" stroke-width="1"/><line x1="0" y1="0" x2="-4.24" y2="4.24" stroke="#666" stroke-width="1"/><line x1="0" y1="0" x2="-6.00" y2="0.00" stroke="#666" stroke-width="1"/><line x1="0" y1="0" x2="-4.24" y2="-4.24" stroke="#666" stroke-width="1"/><line x1="0" y1="0" x2="-0.00" y2="-6.00" stroke="#666" stroke-width="1"/><line x1="0" y1="0" x2="4.24" y2="-4.24" stroke="#666" stroke-width="1"/></g><g transform="translate(200,920)"><circle cx="0" cy="0" r="6" fill="none" stroke="#666" stroke-width="1"/><line x1="0" y1="0" x2="6.00" y2="0.00" stroke="#666" stroke-width="1"/><line x1="0" y1="0" x2="4.24" y2="4.24" stroke="#666" stroke-width="1"/><line x1="0" y1="0" x2="0.00" y2="6.00" stroke="#666" stroke-width="1"/><line x1="0" y1="0" x2="-4.24" y2="4.24" stroke="#666" stroke-width="1"/><line x1="0" y1="0" x2="-6.00" y2="0.00" stroke="#666" stroke-width="1"/><line x1="0" y1="0" x2="-4.24" y2="-4.24" stroke="#666" stroke-width="1"/><line x1="0" y1="0" x2="-0.00" y2="-6.00" stroke="#666" stroke-width="1"/><line x1="0" y1="0" x2="4.24" y2="-4.24" stroke="#666" stroke-width="1"/></g><g transform="translate(400,960)"><circle cx="0" cy="0" r="6" fill="none" stroke="#666" stroke-width="1"/><line x1="0" y1="0" x2="6.00" y2="0.00" stroke="#666" stroke-width="1"/><line x1="0" y1="0" x2="4.24" y2="4.24" stroke="#666" stroke-width="1"/><line x1="0" y1="0" x2="0.00" y2="6.00" stroke="#666" stroke-width="1"/><line x1="0" y1="0" x2="-4.24" y2="4.24" stroke="#666" stroke-width="1"/><line x1="0" y1="0" x2="-6.00" y2="0.00" stroke="#666" stroke-width="1"/><line x1="0" y1="0" x2="-4.24" y2="-4.24" stroke="#666" stroke-width="1"/><line x1="0" y1="0" x2="-0.00" y2="-6.00" stroke="#666" stroke-width="1"/><line x1="0" y1="0" x2="4.24" y2="-4.24" stroke="#666" stroke-width="1"/></g><g transform="translate(700,980)"><circle cx="0" cy="0" r="6" fill="none" stroke="#666" stroke-width="1"/><line x1="0" y1="0" x2="6.00" y2="0.00" stroke="#666" stroke-width="1"/><line x1="0" y1="0" x2="4.24" y2="4.24" stroke="#666" stroke-width="1"/><line x1="0" y1="0" x2="0.00" y2="6.00" stroke="#666" stroke-width="1"/><line x1="0" y1="0" x2="-4.24" y2="4.24" stroke="#666" stroke-width="1"/><line x1="0" y1="0" x2="-6.00" y2="0.00" stroke="#666" stroke-width="1"/><line x1="0" y1="0" x2="-4.24" y2="-4.24" stroke="#666" stroke-width="1"/><line x1="0" y1="0" x2="-0.00" y2="-6.00" stroke="#666" stroke-width="1"/><line x1="0" y1="0" x2="4.24" y2="-4.24" stroke="#666" stroke-width="1"/></g><g transform="translate(1000,970)"><circle cx="0" cy="0" r="6" fill="none" stroke="#666" stroke-width="1"/><line x1="0" y1="0" x2="6.00" y2="0.00" stroke="#666" stroke-width="1"/><line x1="0" y1="0" x2="4.24" y2="4.24" stroke="#666" stroke-width="1"/><line x1="0" y1="0" x2="0.00" y2="6.00" stroke="#666" stroke-width="1"/><line x1="0" y1="0" x2="-4.24" y2="4.24" stroke="#666" stroke-width="1"/><line x1="0" y1="0" x2="-6.00" y2="0.00" stroke="#666" stroke-width="1"/><line x1="0" y1="0" x2="-4.24" y2="-4.24" stroke="#666" stroke-width="1"/><line x1="0" y1="0" x2="-0.00" y2="-6.00" stroke="#666" stroke-width="1"/><line x1="0" y1="0" x2="4.24" y2="-4.24" stroke="#666" stroke-width="1"/></g>
  </g>

  <g id="layer-towers" class="layer" data-layer="towers">
    <g id="tower-Rainbow" class="tower-pin" data-name="Rainbow" data-floors="31" data-color="#F05A7E">
      <circle class="pin" cx="165" cy="886" r="20" fill="#F05A7E" stroke="#fff" stroke-width="2"/>
      <text x="165" y="890" text-anchor="middle" fill="#fff" font-size="9" font-weight="700" font-family="system-ui,sans-serif">Rainbow</text>
    </g><g id="tower-Lagoon" class="tower-pin" data-name="Lagoon" data-floors="21" data-color="#00A6C8">
      <circle class="pin" cx="166" cy="512" r="20" fill="#00A6C8" stroke="#fff" stroke-width="2"/>
      <text x="166" y="516" text-anchor="middle" fill="#fff" font-size="9" font-weight="700" font-family="system-ui,sans-serif">Lagoon</text>
    </g><g id="tower-GW" class="tower-pin" data-name="GW" data-floors="32" data-color="#2F6F8F">
      <circle class="pin" cx="635" cy="196" r="20" fill="#2F6F8F" stroke="#fff" stroke-width="2"/>
      <text x="635" y="200" text-anchor="middle" fill="#fff" font-size="9" font-weight="700" font-family="system-ui,sans-serif">GW</text>
    </g><g id="tower-GI" class="tower-pin" data-name="GI" data-floors="32" data-color="#C89B3C">
      <circle class="pin" cx="1186" cy="780" r="20" fill="#C89B3C" stroke="#fff" stroke-width="2"/>
      <text x="1186" y="784" text-anchor="middle" fill="#fff" font-size="9" font-weight="700" font-family="system-ui,sans-serif">GI</text>
    </g><g id="tower-Tapa" class="tower-pin" data-name="Tapa" data-floors="33" data-color="#B66A35">
      <circle class="pin" cx="802" cy="598" r="20" fill="#B66A35" stroke="#fff" stroke-width="2"/>
      <text x="802" y="602" text-anchor="middle" fill="#fff" font-size="9" font-weight="700" font-family="system-ui,sans-serif">Tapa</text>
    </g><g id="tower-Diamond" class="tower-pin" data-name="Diamond" data-floors="15" data-color="#7C878E">
      <circle class="pin" cx="672" cy="695" r="20" fill="#7C878E" stroke="#fff" stroke-width="2"/>
      <text x="672" y="699" text-anchor="middle" fill="#fff" font-size="9" font-weight="700" font-family="system-ui,sans-serif">Diamond</text>
    </g><g id="tower-Alii" class="tower-pin" data-name="Alii" data-floors="14" data-color="#7B3F98">
      <circle class="pin" cx="432" cy="486" r="20" fill="#7B3F98" stroke="#fff" stroke-width="2"/>
      <text x="432" y="490" text-anchor="middle" fill="#fff" font-size="9" font-weight="700" font-family="system-ui,sans-serif">Alii</text>
    </g>
  </g>

  <g id="compass" transform="translate(1320, 80)">
    <circle cx="0" cy="0" r="28" fill="none" stroke="#1a1a1a"/>
    <line x1="0" y1="18" x2="0" y2="-18" stroke="#1a1a1a" stroke-width="2"/>
    <text x="0" y="-32" text-anchor="middle" fill="#1a1a1a" font-size="9" font-weight="700" font-family="system-ui,sans-serif">N</text>
  </g>
</svg>
